<?xml version="1.0" encoding="utf-8" ?><svg xmlns="http://www.w3.org/2000/svg" xmlns:xlink="http://www.w3.org/1999/xlink" width="1024" height="1024" viewBox="0 0 1024 1024"><path d="M0 0L1024 0L1024 1024L0 1024L0 0ZM917.607 401.799C886.717 404.266 863.74 431.409 866.406 462.283C869.072 493.157 896.363 515.959 927.219 513.093C957.795 510.254 980.345 483.265 977.703 452.671C975.061 422.078 948.218 399.354 917.607 401.799ZM38.3937 402.571L38.0751 556.655C38.0124 577.814 38.7673 600.744 38.1868 621.608L94.4878 621.517L94.4872 558.971C97.5392 563.498 102.954 574.664 105.814 580.073L127.852 621.691C149.477 621.566 173.278 622.225 194.545 621.708C188.033 609.642 180.43 597.628 174.077 585.739L145.71 537.262C141.234 529.674 136.278 520.599 131.498 513.419C144.481 488.996 157.972 464.634 171.19 440.321C177.932 427.919 185.945 415.194 192.394 402.723C169.941 402.471 147.443 402.93 125.005 402.619C115.886 420.265 102.132 444.792 94.4033 462.454L94.3626 402.637L38.3937 402.571ZM682.104 402.664C665.632 404.965 653.203 414.56 643.279 427.551C624.954 451.543 618.783 482.903 618.95 512.589C619.181 548.641 627.595 589.828 657.887 612.816C682.752 631.686 712.618 620.775 729.484 597.09C739.749 582.675 743.763 569.324 747.164 552.308L738.726 540.112L732.412 530.206C721.494 553.534 689.5 559.121 667.613 549.134C633.124 533.397 635.254 485.707 671.122 473.512C684.817 468.856 699.495 469.755 712.632 476.022C725.205 482.36 730.667 489.549 736.131 502.055C744.132 484.266 743.317 462.442 736.979 444.145C729.255 421.848 707.631 400.089 682.104 402.664ZM741.551 402.686C741.373 418.835 742.091 438.672 741.114 454.362C752.193 454.067 763.395 454.151 774.485 454.144L774.507 621.925C793.47 621.912 813.119 622.175 832.02 621.889C831.973 596.245 834.779 566.915 822.45 544.518C814.173 530.655 804.154 522.023 788.919 516.01C784.555 514.287 779.702 513.215 775.474 511.625C793.65 511.057 813.226 511.422 831.529 511.39L831.5 454.014L864.86 454.03C864.736 437.185 864.433 419.717 864.751 402.882L741.551 402.686ZM239.826 403.175C224.568 405.083 211.061 414.351 201.781 426.925C164.116 477.962 167.18 568.641 217.298 610.884C225.595 617.877 238.27 622.013 249.119 621.372C265.046 618.876 277.934 608.663 287.235 595.646C310.094 563.656 315.123 522.931 309.646 484.951C304.836 451.605 280.429 399.369 239.826 403.175ZM315.523 402.988L315.509 534.637L315.457 565.81C315.399 583.77 314.201 595.514 327.91 609.354C341.878 623.456 355.615 622.068 373.911 622.038L402.965 621.953L411.805 621.902C411.907 605.872 411.634 589.897 411.81 573.875L411.742 571.821C409.798 570.522 378.051 571.265 372.763 571.202C372.838 554.331 374.87 536.648 361.997 523.817C351.55 513.404 339.352 511.214 325.464 509.902C331.957 508.051 337.621 506.442 343.619 503.245C358.351 495.392 369.087 480.233 371.652 463.735C372.88 455.836 372.413 446.803 372.366 438.712L372.295 403.036L315.523 402.988ZM415.927 403.061L416.036 528.613L416.236 563.427C416.395 581.795 415.518 595.448 429.765 609.629C444.259 624.056 460.481 622.103 479.211 622.061L510.937 621.998C510.645 605.768 510.64 589.605 510.625 573.375L510.488 571.762C508.57 570.593 478.566 571.187 473.793 571.217C473.815 558.436 474.943 545.747 468.604 534.121C459.577 517.569 442.731 511.68 424.85 510.048C431.657 508.398 437.48 507.228 443.848 504.172C459.355 496.731 470.287 482.034 473.149 465.083C474.487 457.158 474.042 448.221 474.022 440.059L473.982 403.03C454.786 403.038 435.087 402.838 415.927 403.061ZM512.908 402.961L512.945 446.942C512.947 457.26 512.069 470.209 514.316 480.107C517.241 492.95 530.234 505.837 543.154 508.345C552.834 510.224 567.244 509.841 577.448 509.445C587.473 509.056 606.733 510.832 615.906 509.079L616.404 508.302C614.378 503.703 611.749 499.836 609.421 495.445C605.546 488.135 601.285 480.654 597.592 473.271L594.108 466.56L569.342 466.547L569.483 452.784C587.831 452.858 606.564 453.1 624.885 452.856L624.729 402.93L512.908 402.961ZM562.353 512.253C547.509 512.22 537.008 513.705 525.667 524.625C510.45 539.157 514.919 559.783 514.353 578.479C513.749 598.41 529.573 616 548.274 620.758C556.91 622.955 571.981 622.038 581.438 622.01L624.341 621.9C624.881 618.306 624.548 609.013 624.526 604.886L624.351 571.432L569.27 571.426L569.293 555.194L592.695 555.3C596.992 545.829 602.176 536.698 607.242 527.63C609.709 523.216 614.276 516.139 616.174 511.755C598.142 512.118 580.374 512.138 562.353 512.253ZM894.956 515.166C884.224 516.838 876.098 521.679 869.839 530.599C854.408 552.592 843.882 595.365 841.288 621.79L897.337 621.532C900.526 599.718 903.805 580.058 913.948 560.005C916.274 565.151 917.799 569.06 919.684 574.377C924.892 590.865 927.077 604.639 929.113 621.749C947.966 621.698 967.087 621.797 985.916 621.532C983.577 596.955 973.841 523.566 940.986 515.917C934.379 514.378 902.612 514.158 894.956 515.166Z"/><path fill="#FEFEFE" d="M927.219 513.093C896.363 515.959 869.072 493.157 866.406 462.283C863.74 431.409 886.717 404.266 917.607 401.799C948.218 399.354 975.061 422.078 977.703 452.671C980.345 483.265 957.795 510.254 927.219 513.093Z"/><path fill="#FEFEFE" d="M38.1868 621.608C38.7673 600.744 38.0124 577.814 38.0751 556.655L38.3937 402.571L94.3626 402.637L94.4033 462.454C102.132 444.792 115.886 420.265 125.005 402.619C147.443 402.93 169.941 402.471 192.394 402.723C185.945 415.194 177.932 427.919 171.19 440.321C157.972 464.634 144.481 488.996 131.498 513.419C136.278 520.599 141.234 529.674 145.71 537.262L174.077 585.739C180.43 597.628 188.033 609.642 194.545 621.708C173.278 622.225 149.477 621.566 127.852 621.691L105.814 580.073C102.954 574.664 97.5392 563.498 94.4872 558.971L94.4878 621.517L38.1868 621.608Z"/><path fill="#FEFEFE" d="M747.164 552.308C743.763 569.324 739.749 582.675 729.484 597.09C712.618 620.775 682.752 631.686 657.887 612.816C627.595 589.828 619.181 548.641 618.95 512.589C618.783 482.903 624.954 451.543 643.279 427.551C653.203 414.56 665.632 404.965 682.104 402.664C707.631 400.089 729.255 421.848 736.979 444.145C743.317 462.442 744.132 484.266 736.131 502.055C730.667 489.549 725.205 482.36 712.632 476.022C699.495 469.755 684.817 468.856 671.122 473.512C635.254 485.707 633.124 533.397 667.613 549.134C689.5 559.121 721.494 553.534 732.412 530.206L738.726 540.112L747.164 552.308Z"/><path fill="#FEFEFE" d="M741.114 454.362C742.091 438.672 741.373 418.835 741.551 402.686L864.751 402.882C864.433 419.717 864.736 437.185 864.86 454.03L831.5 454.014L831.529 511.39C813.226 511.422 793.65 511.057 775.474 511.625C779.702 513.215 784.555 514.287 788.919 516.01C804.154 522.023 814.173 530.655 822.45 544.518C834.779 566.915 831.973 596.245 832.02 621.889C813.119 622.175 793.47 621.912 774.507 621.925L774.485 454.144C763.395 454.151 752.193 454.067 741.114 454.362Z"/><path fill="#FEFEFE" d="M249.119 621.372C238.27 622.013 225.595 617.877 217.298 610.884C167.18 568.641 164.116 477.962 201.781 426.925C211.061 414.351 224.568 405.083 239.826 403.175C280.429 399.369 304.836 451.605 309.646 484.951C315.123 522.931 310.094 563.656 287.235 595.646C277.934 608.663 265.046 618.876 249.119 621.372ZM239.189 470.177C214.623 473.232 196.702 492.281 200.392 517.604C203.989 542.286 228.131 555.481 251.515 552.507C288.938 548.461 303.35 504.008 273.941 479.838C264.966 472.462 250.774 468.728 239.189 470.177Z"/><path fill="#FEFEFE" d="M411.805 621.902L402.965 621.953L373.911 622.038C355.615 622.068 341.878 623.456 327.91 609.354C314.201 595.514 315.399 583.77 315.457 565.81L315.509 534.637L315.523 402.988L372.295 403.036L372.366 438.712C372.413 446.803 372.88 455.836 371.652 463.735C369.087 480.233 358.351 495.392 343.619 503.245C337.621 506.442 331.957 508.051 325.464 509.902C339.352 511.214 351.55 513.404 361.997 523.817C374.87 536.648 372.838 554.331 372.763 571.202C378.051 571.265 409.798 570.522 411.742 571.821L411.81 573.875C411.634 589.897 411.907 605.872 411.805 621.902Z"/><path fill="#FEFEFE" d="M510.937 621.998L479.211 622.061C460.481 622.103 444.259 624.056 429.765 609.629C415.518 595.448 416.395 581.795 416.236 563.427L416.036 528.613L415.927 403.061C435.087 402.838 454.786 403.038 473.982 403.03L474.022 440.059C474.042 448.221 474.487 457.158 473.149 465.083C470.287 482.034 459.355 496.731 443.848 504.172C437.48 507.228 431.657 508.398 424.85 510.048C442.731 511.68 459.577 517.569 468.604 534.121C474.943 545.747 473.815 558.436 473.793 571.217C478.566 571.187 508.57 570.593 510.488 571.762L510.625 573.375C510.64 589.605 510.645 605.768 510.937 621.998Z"/><path fill="#FEFEFE" d="M597.592 473.271C601.285 480.654 605.546 488.135 609.421 495.445C611.749 499.836 614.378 503.703 616.404 508.302L615.906 509.079C606.733 510.832 587.473 509.056 577.448 509.445C567.244 509.841 552.834 510.224 543.154 508.345C530.234 505.837 517.241 492.95 514.316 480.107C512.069 470.209 512.947 457.26 512.945 446.942L512.908 402.961L624.729 402.93L624.885 452.856C606.564 453.1 587.831 452.858 569.483 452.784L569.342 466.547L594.108 466.56L597.592 473.271Z"/><path d="M251.515 552.507C228.131 555.481 203.989 542.286 200.392 517.604C196.702 492.281 214.623 473.232 239.189 470.177C250.774 468.728 264.966 472.462 273.941 479.838C303.35 504.008 288.938 548.461 251.515 552.507Z"/><path fill="#FEFEFE" d="M624.341 621.9L581.438 622.01C571.981 622.038 556.91 622.955 548.274 620.758C529.573 616 513.749 598.41 514.353 578.479C514.919 559.783 510.45 539.157 525.667 524.625C537.008 513.705 547.509 512.22 562.353 512.253C580.374 512.138 598.142 512.118 616.174 511.755C614.276 516.139 609.709 523.216 607.242 527.63C602.176 536.698 596.992 545.829 592.695 555.3L569.293 555.194L569.27 571.426L624.351 571.432L624.526 604.886C624.548 609.013 624.881 618.306 624.341 621.9Z"/><path fill="#FEFEFE" d="M841.288 621.79C843.882 595.365 854.408 552.592 869.839 530.599C876.098 521.679 884.224 516.838 894.956 515.166C902.612 514.158 934.379 514.378 940.986 515.917C973.841 523.566 983.577 596.955 985.916 621.532C967.087 621.797 947.966 621.698 929.113 621.749C927.077 604.639 924.892 590.865 919.684 574.377C917.799 569.06 916.274 565.151 913.948 560.005C903.805 580.058 900.526 599.718 897.337 621.532L841.288 621.79Z"/></svg>