<?xml version="1.0" encoding="utf-8" ?><svg xmlns="http://www.w3.org/2000/svg" xmlns:xlink="http://www.w3.org/1999/xlink" width="1212" height="1212" viewBox="0 0 1212 1212"><path fill="#090A0B" transform="scale(1.18359 1.18359)" d="M0 0L1024 0L1024 1024L0 1024L0 0Z"/><path fill="#FEFEFE" transform="scale(1.18359 1.18359)" d="M237.032 416.671C251.15 414.886 267.221 419.128 278.381 428.06C321.522 462.633 322.758 532.455 298.868 578.458C288.509 598.405 272.374 610.214 250.118 612.879C241.755 613.776 230.194 612.302 222.528 608.891C151.931 577.475 156.324 428.911 237.032 416.671Z"/><path fill="#090A0B" transform="scale(1.18359 1.18359)" d="M240.243 470.631C247.116 469.92 254.884 471.775 260.747 475.444C291.996 494.997 287.81 550.01 249.573 558.443C197.77 564.269 191.046 478.643 240.243 470.631Z"/><path fill="#FEFEFE" transform="scale(1.18359 1.18359)" d="M51.6512 419.661C63.9414 418.978 78.3165 419.553 90.6973 419.549C99.8634 419.547 97.6835 432.857 97.6424 439.307L97.528 468.467C100.97 462.217 127.562 421.646 131.692 420.245C135.016 419.117 170.106 419.164 175.024 419.63C176.479 419.767 178.652 419.987 179.908 420.824C181.055 421.587 181.497 422.256 181.636 423.617C181.844 425.654 181.301 427.498 180.327 429.254C175.849 437.322 169.317 444.994 164.026 452.609L123.659 509.961C132.022 523.904 142.541 538.036 151.724 551.523C158.479 561.444 165.103 571.499 171.75 581.494C176.4 588.564 184.296 598.455 187.289 606.457C187.806 609.313 184.482 611.673 182.235 611.62C167.752 611.28 149.095 613.078 134.974 611.445C130.724 606.931 123.678 595.546 119.839 589.822C112.449 578.805 104.391 567.402 97.4297 556.191C97.4288 563.366 98.8245 606.669 95.9698 610.088C95.1562 611.063 93.1642 611.453 91.966 611.62C87.2623 612.275 82.0544 611.838 77.277 611.875C70.0579 611.93 62.5935 612.357 55.3967 611.92C53.2893 611.792 50.3109 611.624 48.8204 609.953C46.5951 600.385 47.6564 575.374 47.6367 564.66L47.6247 488.353C47.6282 469.8 47.1412 442.384 48.2092 423.166C48.2982 421.566 50.2408 420.397 51.6512 419.661Z"/><path fill="#FEFEFE" transform="scale(1.18359 1.18359)" d="M683.238 416.702C698.595 415.255 716.276 421.95 727.585 432.167C740.515 443.847 753.499 465.297 754.564 482.978C750.182 488.149 733.579 499.521 727.434 502.186C719.896 489.649 717.288 481.068 703.066 473.929C694.449 469.604 684.423 468.681 675.265 471.827C665.072 475.328 656.93 482.746 652.256 492.421C646.274 504.804 645.382 518.881 649.995 531.867C653.911 542.889 661.772 552.589 672.472 557.616C678.641 560.514 685.391 561.474 692.144 560.66C719.069 557.415 722.216 531.121 727.972 529.041C730.114 529.139 731.341 529.939 733.274 530.869C739.428 534.751 745.486 538.825 751.383 543.09C758.759 548.293 756.432 552.19 753.88 559.27C744.394 585.59 724.693 610.809 694.879 613.531C647.206 617.882 621.299 569.983 617.593 528.803C614.736 497.06 618.258 465.896 639.193 440.514C651.093 426.064 664.764 418.533 683.238 416.702Z"/><path fill="#FEFEFE" transform="scale(1.18359 1.18359)" d="M569.529 418.204C575.252 417.392 605.154 416.854 609.006 419.112C610.62 420.058 611.271 421.381 611.641 423.133C612.532 427.349 612.543 450.851 611.884 455.53C611.678 456.993 611.312 458.31 610.441 459.518C609.432 460.917 607.637 461.658 606.006 461.993C598.259 463.582 585.044 460.837 575.809 462.373C571.454 463.097 567.222 464.622 564.66 468.439C562.301 471.953 561.771 476.56 562.694 480.638C566.732 498.494 602.552 485.78 611.196 491.72C612.722 492.769 613.196 494.164 613.405 495.943C613.927 500.392 613.224 505.167 613.192 509.656C613.146 516.209 613.824 523.152 613.141 529.655C612.981 531.183 612.737 532.952 611.644 534.128C608.084 537.958 587.699 535.628 582.094 535.787C576.08 535.958 569.241 536.998 564.999 541.682C562.147 544.83 560.596 549.528 560.936 553.757C562.861 577.691 603.303 562.569 610.63 569.796C613.646 572.771 612.366 581.306 612.27 585.353C612.236 590.41 612.486 595.469 612.431 600.528C612.401 603.28 612.47 607.777 610.065 609.628C606.326 612.504 577.642 611.331 571.581 610.817C567.116 610.439 562.683 609.814 558.313 608.818C543.233 605.379 530.277 598.141 522 584.75C513.518 571.029 510.394 553.967 514.14 538.193C517.181 525.385 524.387 516.839 535.479 510.071C522.547 504.132 515.854 494.936 514.637 480.761C511.506 444.294 534.881 421.508 569.529 418.204Z"/><path fill="#FEFEFE" transform="scale(1.18359 1.18359)" d="M758.499 419.61L814.54 419.575C821.492 419.568 845.818 418.499 850.577 421.642C852.357 425.604 851.091 452.219 850.668 457.545C847.843 460.12 845.502 462.993 843.023 465.895C839.818 465.933 831.325 465.407 829.324 467.359C828.76 470.656 828.954 477.459 828.954 481.053L828.958 505.562L828.975 593.25C829.041 597.12 830.304 610.875 824.448 610.909C819.578 610.937 778.062 612.835 777.237 609.529C775.142 601.14 775.976 584.6 775.988 575.271L776.01 500.059L776.049 480.208C776.162 466.758 778.177 463.984 763.594 465.683C760.097 466.09 757.08 465.94 754.672 463.037C753.277 458.533 753.449 426.563 754.684 421.86C755.822 420.335 756.693 420.244 758.499 419.61Z"/><path fill="#FEFEFE" transform="scale(1.18359 1.18359)" d="M324.809 419.615C333.133 419.279 363.046 418.197 368.964 421.153C372.099 425.24 371.231 440.257 371.255 445.855L371.266 481.073C371.11 509.374 371.379 538.213 370.829 566.454C382.018 566.295 397.927 566.243 408.782 566.763C416.195 567.119 412.229 601.46 412.468 607.362C412.538 609.089 409.356 610.721 408.12 611.423C385.957 612.78 362.538 611.363 340.273 611.887C336.33 611.98 323.5 612.38 321.024 609.397C319.67 601.662 320.119 590.231 320.141 582.111L320.134 544.051L320.077 469.052C320.073 459.74 319.007 429.266 321.22 421.848C322.62 420.386 322.867 420.385 324.809 419.615Z"/><path fill="#FEFEFE" transform="scale(1.18359 1.18359)" d="M424.439 419.597C431.937 419.247 463.423 418.169 468.42 421.29C471.19 426.337 470.438 438.862 470.441 445.113L470.439 475.153L470.528 566.416C480.489 566.36 490.467 566.372 500.429 566.361C503.742 566.357 509.162 566.156 511.403 568.909C514.179 576.926 511.683 595.15 512.64 604.186C513.108 608.605 511.091 610.177 507.191 611.422C495.463 611.661 427.405 613.166 421.094 610.437C418.952 605.304 419.814 567.807 419.819 558.721L419.987 473.837L419.985 441.111C419.962 435.716 419.784 429.469 420.192 424.101C420.354 421.961 422.766 420.6 424.439 419.597Z"/><path fill="#FEFEFE" transform="scale(1.18359 1.18359)" d="M880.233 512.756C889.284 512.647 953.03 511.685 957.669 513.796C959.803 514.767 961.021 516.571 961.71 518.756C963.16 523.354 963.554 528.699 964.342 533.46L968.858 560.015C971.252 574.438 973.684 588.853 976.341 603.201C976.801 606.423 976.543 610.596 972.427 611.216C963.887 612.503 953.757 611.653 945.259 611.855C928.037 612.265 926.976 612.045 927.41 595.07C927.476 592.517 926.28 585.553 925.692 582.625C925.342 581.566 924.982 580.535 924.521 579.518C922.811 575.741 920.296 572.879 916.32 571.451C912.071 569.926 906.411 569.457 902.241 571.472C889.729 577.516 894.632 597.314 890.7 607.903C890.138 609.416 889.451 610.393 887.88 610.996C884.235 612.394 847.333 612.23 843.917 610.686C842.421 610.01 841.666 608.885 841.223 607.345C840.888 606.183 840.986 604.85 841.171 603.677C843.241 590.507 847.069 577.181 849.986 564.144C852.43 553.224 857.588 523.227 861.879 515.025C865.766 511.738 874.939 512.698 880.233 512.756Z"/><path fill="#FEFEFE" transform="scale(1.18359 1.18359)" d="M910.328 413.694C933.78 412.222 955.691 424.913 963.802 447.116C964.919 450.176 966.684 458.38 967.922 459.364C968.676 458.933 969.15 458.65 969.782 458.023C974.103 453.728 978.24 452.772 983.917 451.47C975.187 458.537 969.895 460.45 978.809 470.129C972.31 468.457 971.858 468.011 966.415 463.941C961.868 480.201 960.083 481.84 947.155 493.439C946.227 497.689 945.414 500.547 944.087 504.704C931.621 503.208 928.628 503.954 929.12 490.421L914.25 490.315L901.632 490.364L901.407 504.417C893.696 504.513 890.127 503.563 883.695 499.454C883.125 495.829 883.09 491.311 882.957 487.569C874.985 487.646 871.768 485.928 865.504 481.655C854.852 481.751 848.377 476.928 848.97 465.516C849.491 455.513 857.486 454.31 863.549 449.111C861.578 443.595 857.181 436.248 860.571 430.361C861.382 428.954 861.832 427.746 863.36 427.255C864.735 430.08 862.913 436.265 865.328 441.439L866.364 441.687C868.377 440.554 869.903 437.186 870.937 435.111C870.258 431.036 868.461 425.713 869.482 421.686C871.361 414.278 882.767 419.77 887.009 421.404C895.237 416.808 900.975 414.792 910.328 413.694Z"/><path fill="#090A0B" transform="scale(1.18359 1.18359)" d="M876.488 446.769C878.378 445.831 880.628 445.989 882.368 447.183C884.108 448.377 885.066 450.419 884.871 452.52C884.675 454.622 883.358 456.452 881.427 457.305C878.534 458.583 875.149 457.316 873.806 454.452C872.464 451.588 873.654 448.176 876.488 446.769Z"/><path fill="#F2BC33" transform="scale(1.18359 1.18359)" d="M682.979 499.668C691.7 497.559 700.489 502.879 702.664 511.583C704.84 520.287 699.588 529.116 690.9 531.359C682.119 533.625 673.172 528.303 670.973 519.504C668.773 510.705 674.164 501.8 682.979 499.668Z"/></svg>